<svg xmlns="http://www.w3.org/2000/svg" width="18" height="18" viewBox="0 0 18 18" fill="none">
    <g clipPath="url(#clip0_9069_82980)">
        <path d="M12.0463 11.6654C11.4776 12.17 10.7675 12.798 9.47995 12.798H8.71001C7.77828 12.798 6.93082 12.4593 6.32423 11.8454C5.73169 11.2456 5.4055 10.4247 5.4055 9.53352V8.48005C5.4055 7.58889 5.73169 6.76797 6.32423 6.16814C6.93082 5.55427 7.77828 5.21612 8.71001 5.21612H9.47995C10.7691 5.21612 11.4776 5.84351 12.0463 6.34814C12.6367 6.86837 13.146 7.32305 14.5043 7.32305C14.7115 7.323 14.9184 7.30648 15.1229 7.27363L15.1182 7.26167C15.0369 7.05962 14.9414 6.86353 14.8326 6.67484L13.9248 5.10218C13.5154 4.39323 12.9267 3.80452 12.2176 3.39523C11.5086 2.98593 10.7044 2.77047 9.88573 2.77051H8.0696C7.25094 2.77047 6.44669 2.98593 5.73769 3.39523C5.02869 3.80452 4.43991 4.39323 4.03053 5.10218L3.12273 6.67484C2.71349 7.38388 2.49805 8.18812 2.49805 9.00678C2.49805 9.82544 2.71349 10.6297 3.12273 11.3387L4.03053 12.9114C4.43991 13.6203 5.02869 14.209 5.73769 14.6183C6.44669 15.0276 7.25094 15.2431 8.0696 15.2431H9.88573C10.7044 15.2431 11.5086 15.0276 12.2176 14.6183C12.9267 14.209 13.5154 13.6203 13.9248 12.9114L14.8326 11.3413C14.9414 11.1526 15.0369 10.9565 15.1182 10.7545L15.1229 10.7431C14.9185 10.7091 14.7116 10.6917 14.5043 10.691C13.146 10.691 12.6367 11.1431 12.0463 11.6659" fill="#006BFF" />
        <path d="M9.4792 6.17041H8.70926C7.29111 6.17041 6.35938 7.1833 6.35938 8.47971V9.53318C6.35938 10.8296 7.29111 11.8425 8.70926 11.8425H9.4792C11.5456 11.8425 11.3832 9.73555 14.5036 9.73555C14.7992 9.73522 15.0942 9.76239 15.3849 9.81671C15.4795 9.28068 15.4795 8.73221 15.3849 8.19619C15.0942 8.25025 14.7992 8.27742 14.5036 8.27734C11.3822 8.27734 11.5456 6.17041 9.4792 6.17041Z" fill="#006BFF" />
        <path d="M17.1794 10.5867C16.6481 10.1975 16.0353 9.93409 15.3872 9.81626C15.3872 9.82198 15.3872 9.82666 15.3872 9.83187C15.3314 10.1425 15.2443 10.4466 15.1271 10.7397C15.6624 10.8226 16.1703 11.0318 16.6087 11.3499C16.6087 11.3541 16.6061 11.3593 16.6046 11.3639C16.0403 13.1911 14.8394 14.7552 13.2199 15.7722C11.6005 16.7892 9.66995 17.1916 7.77906 16.9063C5.88816 16.6209 4.16234 15.6668 2.9151 14.2173C1.66785 12.7677 0.981925 10.9188 0.981925 9.00652C0.981925 7.09422 1.66785 5.24535 2.9151 3.79578C4.16234 2.34621 5.88816 1.39209 7.77906 1.10676C9.66995 0.821429 11.6005 1.22381 13.2199 2.2408C14.8394 3.2578 16.0403 4.82194 16.6046 6.64909C16.6046 6.65377 16.6072 6.65898 16.6087 6.66314C16.1704 6.98133 15.6625 7.19035 15.1271 7.27285C15.2442 7.56628 15.3313 7.87077 15.3872 8.18169C15.3869 8.18654 15.3869 8.19141 15.3872 8.19626C16.0352 8.07862 16.648 7.81535 17.1794 7.42632C17.6903 7.04811 17.5915 6.621 17.5139 6.36817C16.8823 4.31955 15.5367 2.56552 13.7216 1.42478C11.9066 0.284053 9.74248 -0.167666 7.62263 0.15171C5.50278 0.471086 3.56785 1.54036 2.16944 3.16524C0.771033 4.79011 0.00195313 6.86275 0.00195312 9.00652C0.00195312 11.1503 0.771033 13.2229 2.16944 14.8478C3.56785 16.4727 5.50278 17.542 7.62263 17.8613C9.74248 18.1807 11.9066 17.729 13.7216 16.5883C15.5367 15.4475 16.8823 13.6935 17.5139 11.6449C17.5915 11.392 17.6903 10.9649 17.1794 10.5867Z" fill="#006BFF" />
        <path d="M15.1237 7.27272C14.9192 7.30668 14.7124 7.32408 14.5051 7.32474C13.1468 7.32474 12.6375 6.87266 12.0475 6.34983C11.4784 5.8452 10.7698 5.21729 9.4807 5.21729H8.71076C7.77851 5.21729 6.93157 5.55596 6.32498 6.16983C5.73244 6.76966 5.40625 7.59058 5.40625 8.48174V9.5352C5.40625 10.4264 5.73244 11.2473 6.32498 11.8471C6.93157 12.461 7.77851 12.7991 8.71076 12.7991H9.4807C10.7698 12.7991 11.4784 12.1717 12.0475 11.6671C12.6375 11.1469 13.1468 10.6922 14.5051 10.6922C14.7123 10.6922 14.9191 10.7088 15.1237 10.7416C15.2411 10.4487 15.3282 10.1445 15.3838 9.83382C15.3841 9.82862 15.3841 9.82341 15.3838 9.81821C15.0931 9.76432 14.7981 9.73733 14.5025 9.73757C11.3811 9.73757 11.5445 11.845 9.4781 11.845H8.70816C7.29001 11.845 6.35827 10.8316 6.35827 9.5352V8.47966C6.35827 7.18324 7.29001 6.17035 8.70816 6.17035H9.4781C11.5445 6.17035 11.3822 8.27677 14.5025 8.27677C14.7981 8.27727 15.0932 8.25027 15.3838 8.19613C15.3838 8.19145 15.3838 8.18677 15.3838 8.18156C15.3278 7.87064 15.2407 7.56615 15.1237 7.27272Z" fill="#0AE8F0" />
        <path d="M15.1237 7.27272C14.9192 7.30668 14.7124 7.32408 14.5051 7.32474C13.1468 7.32474 12.6375 6.87266 12.0475 6.34983C11.4784 5.8452 10.7698 5.21729 9.4807 5.21729H8.71076C7.77851 5.21729 6.93157 5.55596 6.32498 6.16983C5.73244 6.76966 5.40625 7.59058 5.40625 8.48174V9.5352C5.40625 10.4264 5.73244 11.2473 6.32498 11.8471C6.93157 12.461 7.77851 12.7991 8.71076 12.7991H9.4807C10.7698 12.7991 11.4784 12.1717 12.0475 11.6671C12.6375 11.1469 13.1468 10.6922 14.5051 10.6922C14.7123 10.6922 14.9191 10.7088 15.1237 10.7416C15.2411 10.4487 15.3282 10.1445 15.3838 9.83382C15.3841 9.82862 15.3841 9.82341 15.3838 9.81821C15.0931 9.76432 14.7981 9.73733 14.5025 9.73757C11.3811 9.73757 11.5445 11.845 9.4781 11.845H8.70816C7.29001 11.845 6.35827 10.8316 6.35827 9.5352V8.47966C6.35827 7.18324 7.29001 6.17035 8.70816 6.17035H9.4781C11.5445 6.17035 11.3822 8.27677 14.5025 8.27677C14.7981 8.27727 15.0932 8.25027 15.3838 8.19613C15.3838 8.19145 15.3838 8.18677 15.3838 8.18156C15.3278 7.87064 15.2407 7.56615 15.1237 7.27272Z" fill="#0AE8F0" />
    </g>
    <defs>
        <clipPath id="clip0_9069_82980">
            <rect width="17.5838" height="18" fill="white" />
        </clipPath>
    </defs>
</svg>