<?xml version="1.0" encoding="UTF-8"?><svg id="Logos" xmlns="http://www.w3.org/2000/svg" xmlns:xlink="http://www.w3.org/1999/xlink" viewBox="0 0 186.15 186.15"><defs><style>.cls-1{fill:url(#linear-gradient);}.cls-2{fill:#fff;}</style><linearGradient id="linear-gradient" x1="93.07" y1="186.15" x2="93.07" y2="0" gradientUnits="userSpaceOnUse"><stop offset="0" stop-color="#e3001b"/><stop offset=".5" stop-color="#ff3a0b"/><stop offset="1" stop-color="#ff3a0b"/></linearGradient></defs><rect class="cls-1" x="0" y="0" width="186.15" height="186.15" rx="14.31" ry="14.31"/><path class="cls-2" d="m86.51,116.93h-10.61v-1.72c-1.58,1.17-3.9,2.47-7.85,2.47-12.84,0-17.82-6.95-17.82-20.41v-21.37h10.61v21.37c-.04,3.67,0,10.58,7.64,10.58s7.43-6.54,7.43-10.5v-21.45h10.61v41.03Zm-40.44-56.52c-11.67-1.28-14.32,1.39-16.45,4.17-1.88,2.46-2.12,5.88-2.12,8.33v2.98h-5.84v9.83h5.94v31.2h10.61v-31.2h8.01v-9.83h-7.8v-2.77c0-2.82,2.26-3.17,3.4-3.1l2.33.11,1.91-9.72Zm118.39,36c0-11.8-9.49-21.37-21.19-21.37-4.97,0-9.54,1.73-13.15,4.61,2.28,2.62,4.03,5.74,5.06,9.18,1.93-2.43,4.77-3.97,7.95-3.97,5.8,0,10.5,5.12,10.5,11.43s-4.7,11.43-10.5,11.43-10.45-5.06-10.5-11.33c0-5.43-1.97-10.39-5.22-14.16-3.81-4.42-9.37-7.21-15.57-7.21-3.88,0-7.5,1.09-10.61,2.99v-17.31l-10.61,2.08v54.12h10.61v-1.71c3.11,1.9,6.73,2.57,10.61,2.57,4.9,0,9.4-1.74,12.95-4.65-2.33-2.61-4.13-5.72-5.21-9.15-1.91,2.56-4.76,4.18-7.95,4.18-5.74,0-10.4-5.26-10.4-11.75s4.66-11.75,10.4-11.75,10.4,5.27,10.4,11.76h0c0,11.8,9.52,21.37,21.22,21.37,11.7,0,21.22-9.57,21.22-21.37Z"/></svg>