<svg width="96" height="27" viewBox="0 0 96 27" fill="none" xmlns="http://www.w3.org/2000/svg">
<path d="M27.4631 0H0V27H27.4631V0Z" fill="#007A8A"/>
<path d="M46.7304 22.0729C45.6871 22.0729 45.0451 21.4311 45.0451 20.4149V15.8153H48.5493V11.9646H44.9381V7.76617H43.8948L37.4214 14.6388V15.8153H40.0697V21.2439C40.0697 24.4528 42.0224 26.405 45.2056 26.405H48.6295V22.0729H46.7304Z" fill="#007A8A"/>
<path d="M65.9712 19.0511C65.9712 14.8259 62.7612 11.51 58.1067 11.51C53.5593 11.51 50.269 14.7724 50.269 19.1847C50.269 23.5971 53.586 26.8863 58.1067 26.8863C61.718 26.8863 64.6604 24.8272 65.6769 21.5381H60.7015C60.2468 22.3938 59.257 22.9018 58.1067 22.9018C56.5285 22.9018 55.4853 22.0461 55.1643 20.3881H65.891C65.9444 19.9335 65.9712 19.5057 65.9712 19.0511ZM58.1067 15.4142C59.6048 15.4142 60.648 16.1897 61.076 17.6338H55.2445C55.6458 16.1897 56.6623 15.4142 58.1067 15.4142Z" fill="#007A8A"/>
<path d="M80.1652 11.9646L79.657 13.0877C78.48 12.0983 76.9553 11.5368 75.2433 11.5368C70.8296 11.5368 67.6731 14.719 67.6731 19.1848C67.6731 23.6774 70.8296 26.8863 75.2433 26.8863C76.9285 26.8863 78.4265 26.3515 79.6035 25.3888L80.0315 26.405H83.8835V11.9646H80.1652ZM75.912 22.5007C74.0396 22.5007 72.6753 21.0834 72.6753 19.1848C72.6753 17.3129 74.0396 15.9224 75.912 15.9224C77.7846 15.9224 79.1487 17.3129 79.1487 19.1848C79.1487 21.0834 77.7846 22.5007 75.912 22.5007Z" fill="#007A8A"/>
<path d="M85.5076 26.405H90.483V6.75H85.5076V26.405Z" fill="#007A8A"/>
<path d="M44.9203 0V4.23407L33.9974 15.8221H29.7621L44.9203 0Z" fill="#007A8A"/>
<path d="M96 23.5L92.1785 25.4044V26.5187H96V23.5Z" fill="#007A8A"/>
</svg>
